<mxfile host="app.diagrams.net" modified="2023-04-02T20:37:04.466Z" agent="Mozilla/5.0 (Windows NT 10.0; Win64; x64) AppleWebKit/537.36 (KHTML, like Gecko) Chrome/110.0.0.0 YaBrowser/23.3.0.2246 Yowser/2.5 Safari/537.36" etag="CBTFY_R84Yz3TDZoQ_80" version="21.1.2" type="github" pages="2">
  <diagram name="Страница 1" id="xtfSHhdYNyJ7PTBD_7Cd">
    <mxGraphModel dx="1128" dy="479" grid="1" gridSize="10" guides="1" tooltips="1" connect="1" arrows="1" fold="1" page="1" pageScale="1" pageWidth="827" pageHeight="1169" math="0" shadow="0">
      <root>
        <mxCell id="0" />
        <mxCell id="1" parent="0" />
        <mxCell id="A7LWlaVB-cfk5bUmBY_k-1" value="UML Диграмма Деятельности Буквоеда" style="text;html=1;align=center;verticalAlign=middle;resizable=0;points=[];autosize=1;strokeColor=none;fillColor=none;fontSize=18;labelBackgroundColor=none;fontColor=#143642;" vertex="1" parent="1">
          <mxGeometry x="238" y="15" width="350" height="40" as="geometry" />
        </mxCell>
        <mxCell id="A7LWlaVB-cfk5bUmBY_k-4" value="" style="ellipse;html=1;shape=startState;fillColor=#FAE5C7;strokeColor=#0F8B8D;labelBackgroundColor=none;fontColor=#143642;" vertex="1" parent="1">
          <mxGeometry x="398" y="55" width="30" height="30" as="geometry" />
        </mxCell>
        <mxCell id="A7LWlaVB-cfk5bUmBY_k-5" value="" style="edgeStyle=orthogonalEdgeStyle;html=1;verticalAlign=bottom;endArrow=open;endSize=8;strokeColor=#A8201A;rounded=0;entryX=0.5;entryY=0;entryDx=0;entryDy=0;labelBackgroundColor=none;fontColor=default;" edge="1" source="A7LWlaVB-cfk5bUmBY_k-4" parent="1" target="A7LWlaVB-cfk5bUmBY_k-6">
          <mxGeometry relative="1" as="geometry">
            <mxPoint x="413" y="160" as="targetPoint" />
          </mxGeometry>
        </mxCell>
        <mxCell id="A7LWlaVB-cfk5bUmBY_k-9" value="" style="edgeStyle=orthogonalEdgeStyle;rounded=0;orthogonalLoop=1;jettySize=auto;html=1;labelBackgroundColor=none;strokeColor=#A8201A;fontColor=default;" edge="1" parent="1" source="A7LWlaVB-cfk5bUmBY_k-6" target="A7LWlaVB-cfk5bUmBY_k-7">
          <mxGeometry relative="1" as="geometry" />
        </mxCell>
        <mxCell id="A7LWlaVB-cfk5bUmBY_k-6" value="Зайти в каталог товаров" style="rounded=1;whiteSpace=wrap;html=1;labelBackgroundColor=none;fillColor=#FAE5C7;strokeColor=#0F8B8D;fontColor=#143642;" vertex="1" parent="1">
          <mxGeometry x="354" y="110" width="120" height="60" as="geometry" />
        </mxCell>
        <mxCell id="A7LWlaVB-cfk5bUmBY_k-11" value="" style="edgeStyle=orthogonalEdgeStyle;rounded=0;orthogonalLoop=1;jettySize=auto;html=1;entryX=0.5;entryY=0;entryDx=0;entryDy=0;labelBackgroundColor=none;strokeColor=#A8201A;fontColor=default;" edge="1" parent="1" source="A7LWlaVB-cfk5bUmBY_k-7" target="A7LWlaVB-cfk5bUmBY_k-10">
          <mxGeometry relative="1" as="geometry">
            <mxPoint x="412" y="360" as="targetPoint" />
          </mxGeometry>
        </mxCell>
        <mxCell id="A7LWlaVB-cfk5bUmBY_k-7" value="Каталог" style="rounded=0;whiteSpace=wrap;html=1;labelBackgroundColor=none;fillColor=#FAE5C7;strokeColor=#0F8B8D;fontColor=#143642;" vertex="1" parent="1">
          <mxGeometry x="354" y="190" width="120" height="60" as="geometry" />
        </mxCell>
        <mxCell id="A7LWlaVB-cfk5bUmBY_k-12" style="edgeStyle=orthogonalEdgeStyle;rounded=0;orthogonalLoop=1;jettySize=auto;html=1;entryX=0.975;entryY=0.654;entryDx=0;entryDy=0;entryPerimeter=0;labelBackgroundColor=none;strokeColor=#A8201A;fontColor=default;" edge="1" parent="1" source="A7LWlaVB-cfk5bUmBY_k-10" target="A7LWlaVB-cfk5bUmBY_k-10">
          <mxGeometry relative="1" as="geometry">
            <mxPoint x="480" y="410" as="targetPoint" />
            <Array as="points">
              <mxPoint x="520" y="300" />
              <mxPoint x="520" y="320" />
              <mxPoint x="490" y="320" />
            </Array>
          </mxGeometry>
        </mxCell>
        <mxCell id="A7LWlaVB-cfk5bUmBY_k-20" value="" style="edgeStyle=orthogonalEdgeStyle;rounded=0;orthogonalLoop=1;jettySize=auto;html=1;labelBackgroundColor=none;strokeColor=#A8201A;fontColor=default;" edge="1" parent="1" source="A7LWlaVB-cfk5bUmBY_k-10" target="A7LWlaVB-cfk5bUmBY_k-19">
          <mxGeometry relative="1" as="geometry" />
        </mxCell>
        <mxCell id="A7LWlaVB-cfk5bUmBY_k-10" value="Выбираем товар" style="rounded=1;whiteSpace=wrap;html=1;labelBackgroundColor=none;fillColor=#FAE5C7;strokeColor=#0F8B8D;fontColor=#143642;" vertex="1" parent="1">
          <mxGeometry x="355" y="280" width="117" height="60" as="geometry" />
        </mxCell>
        <mxCell id="A7LWlaVB-cfk5bUmBY_k-17" value="Используем фильтр по жанрам&amp;nbsp;" style="shape=note2;boundedLbl=1;whiteSpace=wrap;html=1;size=25;verticalAlign=top;align=center;labelBackgroundColor=none;fillColor=#FAE5C7;strokeColor=#0F8B8D;fontColor=#143642;" vertex="1" parent="1">
          <mxGeometry x="190" y="230" width="120" height="60" as="geometry" />
        </mxCell>
        <mxCell id="A7LWlaVB-cfk5bUmBY_k-18" value="" style="endArrow=none;dashed=1;html=1;rounded=0;exitX=0.5;exitY=1;exitDx=0;exitDy=0;exitPerimeter=0;entryX=0;entryY=0.5;entryDx=0;entryDy=0;labelBackgroundColor=none;strokeColor=#A8201A;fontColor=default;" edge="1" parent="1" source="A7LWlaVB-cfk5bUmBY_k-17" target="A7LWlaVB-cfk5bUmBY_k-10">
          <mxGeometry width="50" height="50" relative="1" as="geometry">
            <mxPoint x="390" y="380" as="sourcePoint" />
            <mxPoint x="440" y="330" as="targetPoint" />
          </mxGeometry>
        </mxCell>
        <mxCell id="A7LWlaVB-cfk5bUmBY_k-22" value="" style="edgeStyle=orthogonalEdgeStyle;rounded=0;orthogonalLoop=1;jettySize=auto;html=1;labelBackgroundColor=none;strokeColor=#A8201A;fontColor=default;" edge="1" parent="1" source="A7LWlaVB-cfk5bUmBY_k-19" target="A7LWlaVB-cfk5bUmBY_k-21">
          <mxGeometry relative="1" as="geometry" />
        </mxCell>
        <mxCell id="A7LWlaVB-cfk5bUmBY_k-19" value="Добавить в корзину" style="rounded=1;whiteSpace=wrap;html=1;labelBackgroundColor=none;fillColor=#FAE5C7;strokeColor=#0F8B8D;fontColor=#143642;" vertex="1" parent="1">
          <mxGeometry x="353" y="370" width="120" height="60" as="geometry" />
        </mxCell>
        <mxCell id="A7LWlaVB-cfk5bUmBY_k-25" value="" style="edgeStyle=orthogonalEdgeStyle;rounded=0;orthogonalLoop=1;jettySize=auto;html=1;labelBackgroundColor=none;strokeColor=#A8201A;fontColor=default;" edge="1" parent="1" source="A7LWlaVB-cfk5bUmBY_k-21" target="A7LWlaVB-cfk5bUmBY_k-23">
          <mxGeometry relative="1" as="geometry" />
        </mxCell>
        <mxCell id="A7LWlaVB-cfk5bUmBY_k-21" value="Уведомление о желании продолжить покупки" style="rounded=0;whiteSpace=wrap;html=1;labelBackgroundColor=none;fillColor=#FAE5C7;strokeColor=#0F8B8D;fontColor=#143642;" vertex="1" parent="1">
          <mxGeometry x="354" y="460" width="120" height="60" as="geometry" />
        </mxCell>
        <mxCell id="A7LWlaVB-cfk5bUmBY_k-24" style="edgeStyle=orthogonalEdgeStyle;rounded=0;orthogonalLoop=1;jettySize=auto;html=1;entryX=1;entryY=0.5;entryDx=0;entryDy=0;exitX=1;exitY=0.5;exitDx=0;exitDy=0;labelBackgroundColor=none;strokeColor=#A8201A;fontColor=default;" edge="1" parent="1" source="A7LWlaVB-cfk5bUmBY_k-23" target="A7LWlaVB-cfk5bUmBY_k-6">
          <mxGeometry relative="1" as="geometry">
            <Array as="points">
              <mxPoint x="600" y="590" />
              <mxPoint x="600" y="160" />
              <mxPoint x="474" y="160" />
            </Array>
          </mxGeometry>
        </mxCell>
        <mxCell id="A7LWlaVB-cfk5bUmBY_k-26" value="Продолжаем покупки" style="edgeLabel;html=1;align=center;verticalAlign=middle;resizable=0;points=[];labelBackgroundColor=none;fontColor=#143642;" vertex="1" connectable="0" parent="A7LWlaVB-cfk5bUmBY_k-24">
          <mxGeometry x="0.2643" y="-2" relative="1" as="geometry">
            <mxPoint as="offset" />
          </mxGeometry>
        </mxCell>
        <mxCell id="A7LWlaVB-cfk5bUmBY_k-29" value="оформляем заказ" style="edgeStyle=orthogonalEdgeStyle;rounded=0;orthogonalLoop=1;jettySize=auto;html=1;labelBackgroundColor=none;strokeColor=#A8201A;fontColor=default;" edge="1" parent="1" source="A7LWlaVB-cfk5bUmBY_k-23" target="A7LWlaVB-cfk5bUmBY_k-28">
          <mxGeometry relative="1" as="geometry" />
        </mxCell>
        <mxCell id="A7LWlaVB-cfk5bUmBY_k-23" value="" style="rhombus;whiteSpace=wrap;html=1;labelBackgroundColor=none;fillColor=#FAE5C7;strokeColor=#0F8B8D;fontColor=#143642;" vertex="1" parent="1">
          <mxGeometry x="373" y="550" width="80" height="80" as="geometry" />
        </mxCell>
        <mxCell id="A7LWlaVB-cfk5bUmBY_k-31" value="" style="edgeStyle=orthogonalEdgeStyle;rounded=0;orthogonalLoop=1;jettySize=auto;html=1;labelBackgroundColor=none;strokeColor=#A8201A;fontColor=default;" edge="1" parent="1" source="A7LWlaVB-cfk5bUmBY_k-28" target="A7LWlaVB-cfk5bUmBY_k-30">
          <mxGeometry relative="1" as="geometry" />
        </mxCell>
        <mxCell id="A7LWlaVB-cfk5bUmBY_k-28" value="Оформить заказ" style="rounded=1;whiteSpace=wrap;html=1;labelBackgroundColor=none;fillColor=#FAE5C7;strokeColor=#0F8B8D;fontColor=#143642;" vertex="1" parent="1">
          <mxGeometry x="355" y="690" width="120" height="60" as="geometry" />
        </mxCell>
        <mxCell id="A7LWlaVB-cfk5bUmBY_k-36" style="edgeStyle=orthogonalEdgeStyle;rounded=0;orthogonalLoop=1;jettySize=auto;html=1;entryX=0.5;entryY=0;entryDx=0;entryDy=0;labelBackgroundColor=none;strokeColor=#A8201A;fontColor=default;" edge="1" parent="1" source="A7LWlaVB-cfk5bUmBY_k-30" target="A7LWlaVB-cfk5bUmBY_k-32">
          <mxGeometry relative="1" as="geometry" />
        </mxCell>
        <mxCell id="A7LWlaVB-cfk5bUmBY_k-30" value="корзина" style="rounded=0;whiteSpace=wrap;html=1;labelBackgroundColor=none;fillColor=#FAE5C7;strokeColor=#0F8B8D;fontColor=#143642;" vertex="1" parent="1">
          <mxGeometry x="355" y="790" width="120" height="60" as="geometry" />
        </mxCell>
        <mxCell id="A7LWlaVB-cfk5bUmBY_k-34" value="нужно удалить товар" style="edgeStyle=orthogonalEdgeStyle;rounded=0;orthogonalLoop=1;jettySize=auto;html=1;entryX=0.5;entryY=1;entryDx=0;entryDy=0;labelBackgroundColor=none;strokeColor=#A8201A;fontColor=default;" edge="1" parent="1" source="A7LWlaVB-cfk5bUmBY_k-32" target="A7LWlaVB-cfk5bUmBY_k-33">
          <mxGeometry relative="1" as="geometry" />
        </mxCell>
        <mxCell id="JYgcDTNMozTfL4npXy75-2" style="edgeStyle=orthogonalEdgeStyle;rounded=0;orthogonalLoop=1;jettySize=auto;html=1;labelBackgroundColor=none;strokeColor=#A8201A;fontColor=default;" edge="1" parent="1" source="A7LWlaVB-cfk5bUmBY_k-32" target="JYgcDTNMozTfL4npXy75-1">
          <mxGeometry relative="1" as="geometry" />
        </mxCell>
        <mxCell id="A7LWlaVB-cfk5bUmBY_k-32" value="" style="rhombus;whiteSpace=wrap;html=1;labelBackgroundColor=none;fillColor=#FAE5C7;strokeColor=#0F8B8D;fontColor=#143642;" vertex="1" parent="1">
          <mxGeometry x="375" y="880" width="80" height="80" as="geometry" />
        </mxCell>
        <mxCell id="A7LWlaVB-cfk5bUmBY_k-35" style="edgeStyle=orthogonalEdgeStyle;rounded=0;orthogonalLoop=1;jettySize=auto;html=1;entryX=1;entryY=0.5;entryDx=0;entryDy=0;labelBackgroundColor=none;strokeColor=#A8201A;fontColor=default;" edge="1" parent="1" source="A7LWlaVB-cfk5bUmBY_k-33" target="A7LWlaVB-cfk5bUmBY_k-30">
          <mxGeometry relative="1" as="geometry" />
        </mxCell>
        <mxCell id="A7LWlaVB-cfk5bUmBY_k-33" value="убрать из корзины" style="rounded=1;whiteSpace=wrap;html=1;labelBackgroundColor=none;fillColor=#FAE5C7;strokeColor=#0F8B8D;fontColor=#143642;" vertex="1" parent="1">
          <mxGeometry x="580" y="790" width="120" height="60" as="geometry" />
        </mxCell>
        <mxCell id="S-7hGzLh_vZ6XvszajCB-2" style="edgeStyle=orthogonalEdgeStyle;rounded=0;orthogonalLoop=1;jettySize=auto;html=1;entryX=0.5;entryY=0;entryDx=0;entryDy=0;labelBackgroundColor=none;strokeColor=#A8201A;fontColor=default;" edge="1" parent="1" source="JYgcDTNMozTfL4npXy75-1" target="S-7hGzLh_vZ6XvszajCB-1">
          <mxGeometry relative="1" as="geometry" />
        </mxCell>
        <mxCell id="S-7hGzLh_vZ6XvszajCB-4" style="edgeStyle=orthogonalEdgeStyle;rounded=0;orthogonalLoop=1;jettySize=auto;html=1;labelBackgroundColor=none;strokeColor=#A8201A;fontColor=default;" edge="1" parent="1" source="JYgcDTNMozTfL4npXy75-1">
          <mxGeometry relative="1" as="geometry">
            <mxPoint x="370.5" y="1060" as="targetPoint" />
          </mxGeometry>
        </mxCell>
        <mxCell id="S-7hGzLh_vZ6XvszajCB-16" style="edgeStyle=orthogonalEdgeStyle;rounded=0;orthogonalLoop=1;jettySize=auto;html=1;labelBackgroundColor=none;strokeColor=#A8201A;fontColor=default;" edge="1" parent="1" source="JYgcDTNMozTfL4npXy75-1" target="S-7hGzLh_vZ6XvszajCB-15">
          <mxGeometry relative="1" as="geometry" />
        </mxCell>
        <mxCell id="S-7hGzLh_vZ6XvszajCB-26" style="edgeStyle=orthogonalEdgeStyle;rounded=0;orthogonalLoop=1;jettySize=auto;html=1;entryX=0.5;entryY=0;entryDx=0;entryDy=0;labelBackgroundColor=none;strokeColor=#A8201A;fontColor=default;" edge="1" parent="1" source="JYgcDTNMozTfL4npXy75-1" target="S-7hGzLh_vZ6XvszajCB-25">
          <mxGeometry relative="1" as="geometry" />
        </mxCell>
        <mxCell id="JYgcDTNMozTfL4npXy75-1" value="" style="html=1;points=[];perimeter=orthogonalPerimeter;fillColor=#FAE5C7;rotation=-90;labelBackgroundColor=none;strokeColor=#0F8B8D;fontColor=#143642;" vertex="1" parent="1">
          <mxGeometry x="368" y="930" width="5" height="170" as="geometry" />
        </mxCell>
        <mxCell id="S-7hGzLh_vZ6XvszajCB-1" value="Вводим контактные данные" style="rounded=1;whiteSpace=wrap;html=1;labelBackgroundColor=none;fillColor=#FAE5C7;strokeColor=#0F8B8D;fontColor=#143642;" vertex="1" parent="1">
          <mxGeometry x="210" y="1050" width="120" height="60" as="geometry" />
        </mxCell>
        <mxCell id="S-7hGzLh_vZ6XvszajCB-7" style="edgeStyle=orthogonalEdgeStyle;rounded=0;orthogonalLoop=1;jettySize=auto;html=1;entryX=0.5;entryY=0;entryDx=0;entryDy=0;labelBackgroundColor=none;strokeColor=#A8201A;fontColor=default;" edge="1" parent="1" source="S-7hGzLh_vZ6XvszajCB-5" target="S-7hGzLh_vZ6XvszajCB-6">
          <mxGeometry relative="1" as="geometry" />
        </mxCell>
        <mxCell id="S-7hGzLh_vZ6XvszajCB-11" style="edgeStyle=orthogonalEdgeStyle;rounded=0;orthogonalLoop=1;jettySize=auto;html=1;entryX=1;entryY=0.5;entryDx=0;entryDy=0;labelBackgroundColor=none;strokeColor=#A8201A;fontColor=default;" edge="1" parent="1" source="S-7hGzLh_vZ6XvszajCB-5" target="S-7hGzLh_vZ6XvszajCB-8">
          <mxGeometry relative="1" as="geometry" />
        </mxCell>
        <mxCell id="S-7hGzLh_vZ6XvszajCB-5" value="" style="rhombus;whiteSpace=wrap;html=1;labelBackgroundColor=none;fillColor=#FAE5C7;strokeColor=#0F8B8D;fontColor=#143642;" vertex="1" parent="1">
          <mxGeometry x="336" y="1060" width="69" height="60" as="geometry" />
        </mxCell>
        <mxCell id="S-7hGzLh_vZ6XvszajCB-12" style="edgeStyle=orthogonalEdgeStyle;rounded=0;orthogonalLoop=1;jettySize=auto;html=1;labelBackgroundColor=none;strokeColor=#A8201A;fontColor=default;" edge="1" parent="1" source="S-7hGzLh_vZ6XvszajCB-6" target="S-7hGzLh_vZ6XvszajCB-8">
          <mxGeometry relative="1" as="geometry" />
        </mxCell>
        <mxCell id="S-7hGzLh_vZ6XvszajCB-6" value="Отказаться от подписки" style="rounded=1;whiteSpace=wrap;html=1;labelBackgroundColor=none;fillColor=#FAE5C7;strokeColor=#0F8B8D;fontColor=#143642;" vertex="1" parent="1">
          <mxGeometry x="311" y="1169" width="120" height="60" as="geometry" />
        </mxCell>
        <mxCell id="S-7hGzLh_vZ6XvszajCB-29" style="edgeStyle=orthogonalEdgeStyle;rounded=0;orthogonalLoop=1;jettySize=auto;html=1;entryX=0.774;entryY=0.241;entryDx=0;entryDy=0;entryPerimeter=0;labelBackgroundColor=none;strokeColor=#A8201A;fontColor=default;" edge="1" parent="1" source="S-7hGzLh_vZ6XvszajCB-8" target="S-7hGzLh_vZ6XvszajCB-27">
          <mxGeometry relative="1" as="geometry" />
        </mxCell>
        <mxCell id="S-7hGzLh_vZ6XvszajCB-8" value="" style="rhombus;whiteSpace=wrap;html=1;labelBackgroundColor=none;fillColor=#FAE5C7;strokeColor=#0F8B8D;fontColor=#143642;" vertex="1" parent="1">
          <mxGeometry x="440" y="1240" width="80" height="80" as="geometry" />
        </mxCell>
        <mxCell id="S-7hGzLh_vZ6XvszajCB-18" value="Есть промокод" style="edgeStyle=orthogonalEdgeStyle;rounded=0;orthogonalLoop=1;jettySize=auto;html=1;labelBackgroundColor=none;strokeColor=#A8201A;fontColor=default;" edge="1" parent="1" source="S-7hGzLh_vZ6XvszajCB-15" target="S-7hGzLh_vZ6XvszajCB-17">
          <mxGeometry relative="1" as="geometry" />
        </mxCell>
        <mxCell id="S-7hGzLh_vZ6XvszajCB-20" value="else" style="edgeStyle=orthogonalEdgeStyle;rounded=0;orthogonalLoop=1;jettySize=auto;html=1;entryX=1;entryY=0.5;entryDx=0;entryDy=0;labelBackgroundColor=none;strokeColor=#A8201A;fontColor=default;" edge="1" parent="1" source="S-7hGzLh_vZ6XvszajCB-15" target="S-7hGzLh_vZ6XvszajCB-19">
          <mxGeometry relative="1" as="geometry" />
        </mxCell>
        <mxCell id="S-7hGzLh_vZ6XvszajCB-15" value="" style="rhombus;whiteSpace=wrap;html=1;labelBackgroundColor=none;fillColor=#FAE5C7;strokeColor=#0F8B8D;fontColor=#143642;" vertex="1" parent="1">
          <mxGeometry x="620" y="1060" width="80" height="80" as="geometry" />
        </mxCell>
        <mxCell id="S-7hGzLh_vZ6XvszajCB-23" value="" style="edgeStyle=orthogonalEdgeStyle;rounded=0;orthogonalLoop=1;jettySize=auto;html=1;labelBackgroundColor=none;strokeColor=#A8201A;fontColor=default;" edge="1" parent="1" source="S-7hGzLh_vZ6XvszajCB-17" target="S-7hGzLh_vZ6XvszajCB-22">
          <mxGeometry relative="1" as="geometry" />
        </mxCell>
        <mxCell id="S-7hGzLh_vZ6XvszajCB-17" value="Ввести промокод" style="rounded=1;whiteSpace=wrap;html=1;labelBackgroundColor=none;fillColor=#FAE5C7;strokeColor=#0F8B8D;fontColor=#143642;" vertex="1" parent="1">
          <mxGeometry x="600" y="1190" width="120" height="60" as="geometry" />
        </mxCell>
        <mxCell id="S-7hGzLh_vZ6XvszajCB-30" style="edgeStyle=orthogonalEdgeStyle;rounded=0;orthogonalLoop=1;jettySize=auto;html=1;entryX=1.405;entryY=0.786;entryDx=0;entryDy=0;entryPerimeter=0;labelBackgroundColor=none;strokeColor=#A8201A;fontColor=default;" edge="1" parent="1" source="S-7hGzLh_vZ6XvszajCB-19" target="S-7hGzLh_vZ6XvszajCB-27">
          <mxGeometry relative="1" as="geometry" />
        </mxCell>
        <mxCell id="S-7hGzLh_vZ6XvszajCB-19" value="" style="rhombus;whiteSpace=wrap;html=1;labelBackgroundColor=none;fillColor=#FAE5C7;strokeColor=#0F8B8D;fontColor=#143642;" vertex="1" parent="1">
          <mxGeometry x="710" y="1400" width="70" height="70" as="geometry" />
        </mxCell>
        <mxCell id="S-7hGzLh_vZ6XvszajCB-24" style="edgeStyle=orthogonalEdgeStyle;rounded=0;orthogonalLoop=1;jettySize=auto;html=1;entryX=0.5;entryY=0;entryDx=0;entryDy=0;labelBackgroundColor=none;strokeColor=#A8201A;fontColor=default;" edge="1" parent="1" source="S-7hGzLh_vZ6XvszajCB-22" target="S-7hGzLh_vZ6XvszajCB-19">
          <mxGeometry relative="1" as="geometry" />
        </mxCell>
        <mxCell id="S-7hGzLh_vZ6XvszajCB-22" value="Применить промокод" style="rounded=1;whiteSpace=wrap;html=1;labelBackgroundColor=none;fillColor=#FAE5C7;strokeColor=#0F8B8D;fontColor=#143642;" vertex="1" parent="1">
          <mxGeometry x="600" y="1280" width="120" height="60" as="geometry" />
        </mxCell>
        <mxCell id="S-7hGzLh_vZ6XvszajCB-28" style="edgeStyle=orthogonalEdgeStyle;rounded=0;orthogonalLoop=1;jettySize=auto;html=1;entryX=0.774;entryY=0.067;entryDx=0;entryDy=0;entryPerimeter=0;labelBackgroundColor=none;strokeColor=#A8201A;fontColor=default;" edge="1" parent="1" source="S-7hGzLh_vZ6XvszajCB-25" target="S-7hGzLh_vZ6XvszajCB-27">
          <mxGeometry relative="1" as="geometry">
            <Array as="points">
              <mxPoint x="130" y="1350" />
              <mxPoint x="343" y="1350" />
            </Array>
          </mxGeometry>
        </mxCell>
        <mxCell id="S-7hGzLh_vZ6XvszajCB-25" value="Выбираем вариант оплаты&amp;nbsp;" style="rounded=1;whiteSpace=wrap;html=1;labelBackgroundColor=none;fillColor=#FAE5C7;strokeColor=#0F8B8D;fontColor=#143642;" vertex="1" parent="1">
          <mxGeometry x="70" y="1150" width="120" height="60" as="geometry" />
        </mxCell>
        <mxCell id="S-7hGzLh_vZ6XvszajCB-32" style="edgeStyle=orthogonalEdgeStyle;rounded=0;orthogonalLoop=1;jettySize=auto;html=1;entryX=0.5;entryY=0;entryDx=0;entryDy=0;labelBackgroundColor=none;strokeColor=#A8201A;fontColor=default;" edge="1" parent="1" source="S-7hGzLh_vZ6XvszajCB-27" target="S-7hGzLh_vZ6XvszajCB-31">
          <mxGeometry relative="1" as="geometry" />
        </mxCell>
        <mxCell id="S-7hGzLh_vZ6XvszajCB-27" value="" style="html=1;points=[];perimeter=orthogonalPerimeter;fillColor=#FAE5C7;rotation=-90;labelBackgroundColor=none;strokeColor=#0F8B8D;fontColor=#143642;" vertex="1" parent="1">
          <mxGeometry x="414" y="1430" width="5" height="170" as="geometry" />
        </mxCell>
        <mxCell id="S-7hGzLh_vZ6XvszajCB-34" value="" style="edgeStyle=orthogonalEdgeStyle;rounded=0;orthogonalLoop=1;jettySize=auto;html=1;labelBackgroundColor=none;strokeColor=#A8201A;fontColor=default;" edge="1" parent="1" source="S-7hGzLh_vZ6XvszajCB-31" target="S-7hGzLh_vZ6XvszajCB-33">
          <mxGeometry relative="1" as="geometry" />
        </mxCell>
        <mxCell id="S-7hGzLh_vZ6XvszajCB-31" value="Отправить заказ" style="rounded=1;whiteSpace=wrap;html=1;labelBackgroundColor=none;fillColor=#FAE5C7;strokeColor=#0F8B8D;fontColor=#143642;" vertex="1" parent="1">
          <mxGeometry x="356.5" y="1580" width="120" height="60" as="geometry" />
        </mxCell>
        <mxCell id="S-7hGzLh_vZ6XvszajCB-36" value="" style="edgeStyle=orthogonalEdgeStyle;rounded=0;orthogonalLoop=1;jettySize=auto;html=1;labelBackgroundColor=none;strokeColor=#A8201A;fontColor=default;" edge="1" parent="1" source="S-7hGzLh_vZ6XvszajCB-33" target="S-7hGzLh_vZ6XvszajCB-35">
          <mxGeometry relative="1" as="geometry" />
        </mxCell>
        <mxCell id="S-7hGzLh_vZ6XvszajCB-33" value="Сообщение о завершенной процедуре" style="rounded=0;whiteSpace=wrap;html=1;labelBackgroundColor=none;fillColor=#FAE5C7;strokeColor=#0F8B8D;fontColor=#143642;" vertex="1" parent="1">
          <mxGeometry x="357" y="1710" width="120" height="60" as="geometry" />
        </mxCell>
        <mxCell id="S-7hGzLh_vZ6XvszajCB-35" value="" style="ellipse;html=1;shape=endState;fillColor=#FAE5C7;strokeColor=#0F8B8D;labelBackgroundColor=none;fontColor=#143642;" vertex="1" parent="1">
          <mxGeometry x="402" y="1850" width="30" height="30" as="geometry" />
        </mxCell>
      </root>
    </mxGraphModel>
  </diagram>
  <diagram id="FIvZPnBvHhef-zkjwO8T" name="Страница 2">
    <mxGraphModel dx="1261" dy="535" grid="1" gridSize="10" guides="1" tooltips="1" connect="1" arrows="1" fold="1" page="1" pageScale="1" pageWidth="827" pageHeight="1169" math="0" shadow="0">
      <root>
        <mxCell id="0" />
        <mxCell id="1" parent="0" />
        <mxCell id="rAa5i9q1NJUEjYylJrQr-1" value="&lt;font style=&quot;font-size: 24px;&quot;&gt;UML Диаграмма использования &quot;Буквоед&quot;&lt;/font&gt;" style="text;html=1;align=center;verticalAlign=middle;resizable=0;points=[];autosize=1;strokeColor=none;fillColor=none;labelBackgroundColor=none;fontColor=#143642;" vertex="1" parent="1">
          <mxGeometry x="169" y="20" width="490" height="40" as="geometry" />
        </mxCell>
        <mxCell id="qmOXjqmKXsrBevs1zzz6-10" style="edgeStyle=orthogonalEdgeStyle;rounded=0;orthogonalLoop=1;jettySize=auto;html=1;entryX=0.5;entryY=0;entryDx=0;entryDy=0;strokeColor=#A8201A;fontColor=#143642;fillColor=#FAE5C7;" edge="1" parent="1" source="rAa5i9q1NJUEjYylJrQr-2" target="qmOXjqmKXsrBevs1zzz6-5">
          <mxGeometry relative="1" as="geometry" />
        </mxCell>
        <mxCell id="WGp3EcYNC5x79ocShvrn-6" style="edgeStyle=orthogonalEdgeStyle;rounded=0;orthogonalLoop=1;jettySize=auto;html=1;entryX=0;entryY=0.5;entryDx=0;entryDy=0;strokeColor=#A8201A;fontColor=#143642;fillColor=#FAE5C7;" edge="1" parent="1" source="rAa5i9q1NJUEjYylJrQr-2" target="WGp3EcYNC5x79ocShvrn-1">
          <mxGeometry relative="1" as="geometry" />
        </mxCell>
        <mxCell id="WGp3EcYNC5x79ocShvrn-9" style="edgeStyle=orthogonalEdgeStyle;rounded=0;orthogonalLoop=1;jettySize=auto;html=1;entryX=0;entryY=0.5;entryDx=0;entryDy=0;strokeColor=#A8201A;fontColor=#143642;fillColor=#FAE5C7;" edge="1" parent="1" source="rAa5i9q1NJUEjYylJrQr-2" target="WGp3EcYNC5x79ocShvrn-2">
          <mxGeometry relative="1" as="geometry" />
        </mxCell>
        <mxCell id="WGp3EcYNC5x79ocShvrn-25" style="edgeStyle=orthogonalEdgeStyle;rounded=0;orthogonalLoop=1;jettySize=auto;html=1;entryX=0;entryY=0.5;entryDx=0;entryDy=0;strokeColor=#A8201A;fontColor=#143642;fillColor=#FAE5C7;" edge="1" parent="1" source="rAa5i9q1NJUEjYylJrQr-2" target="WGp3EcYNC5x79ocShvrn-24">
          <mxGeometry relative="1" as="geometry" />
        </mxCell>
        <mxCell id="WGp3EcYNC5x79ocShvrn-28" style="edgeStyle=orthogonalEdgeStyle;rounded=0;orthogonalLoop=1;jettySize=auto;html=1;strokeColor=#A8201A;fontColor=#143642;fillColor=#FAE5C7;" edge="1" parent="1" source="rAa5i9q1NJUEjYylJrQr-2" target="WGp3EcYNC5x79ocShvrn-27">
          <mxGeometry relative="1" as="geometry">
            <Array as="points">
              <mxPoint x="75" y="180" />
              <mxPoint x="630" y="180" />
            </Array>
          </mxGeometry>
        </mxCell>
        <mxCell id="rAa5i9q1NJUEjYylJrQr-2" value="Пользователь" style="shape=umlActor;verticalLabelPosition=bottom;verticalAlign=top;html=1;labelBackgroundColor=none;fillColor=#FAE5C7;strokeColor=#0F8B8D;fontColor=#143642;" vertex="1" parent="1">
          <mxGeometry x="60" y="100" width="30" height="60" as="geometry" />
        </mxCell>
        <mxCell id="qmOXjqmKXsrBevs1zzz6-11" style="edgeStyle=orthogonalEdgeStyle;rounded=0;orthogonalLoop=1;jettySize=auto;html=1;strokeColor=#A8201A;fontColor=#143642;fillColor=#FAE5C7;" edge="1" parent="1" source="rAa5i9q1NJUEjYylJrQr-3" target="qmOXjqmKXsrBevs1zzz6-5">
          <mxGeometry relative="1" as="geometry" />
        </mxCell>
        <mxCell id="WGp3EcYNC5x79ocShvrn-7" style="edgeStyle=orthogonalEdgeStyle;rounded=0;orthogonalLoop=1;jettySize=auto;html=1;entryX=0;entryY=0.5;entryDx=0;entryDy=0;strokeColor=#A8201A;fontColor=#143642;fillColor=#FAE5C7;" edge="1" parent="1" source="rAa5i9q1NJUEjYylJrQr-3" target="WGp3EcYNC5x79ocShvrn-1">
          <mxGeometry relative="1" as="geometry">
            <Array as="points">
              <mxPoint x="225" y="250" />
              <mxPoint x="225" y="150" />
              <mxPoint x="360" y="150" />
            </Array>
          </mxGeometry>
        </mxCell>
        <mxCell id="WGp3EcYNC5x79ocShvrn-8" style="edgeStyle=orthogonalEdgeStyle;rounded=0;orthogonalLoop=1;jettySize=auto;html=1;entryX=0;entryY=0.5;entryDx=0;entryDy=0;strokeColor=#A8201A;fontColor=#143642;fillColor=#FAE5C7;" edge="1" parent="1" source="rAa5i9q1NJUEjYylJrQr-3" target="WGp3EcYNC5x79ocShvrn-2">
          <mxGeometry relative="1" as="geometry" />
        </mxCell>
        <mxCell id="WGp3EcYNC5x79ocShvrn-11" style="edgeStyle=orthogonalEdgeStyle;rounded=0;orthogonalLoop=1;jettySize=auto;html=1;strokeColor=#A8201A;fontColor=#143642;fillColor=#FAE5C7;" edge="1" parent="1" source="rAa5i9q1NJUEjYylJrQr-3" target="WGp3EcYNC5x79ocShvrn-10">
          <mxGeometry relative="1" as="geometry">
            <Array as="points">
              <mxPoint x="510" y="280" />
            </Array>
          </mxGeometry>
        </mxCell>
        <mxCell id="WGp3EcYNC5x79ocShvrn-26" style="edgeStyle=orthogonalEdgeStyle;rounded=0;orthogonalLoop=1;jettySize=auto;html=1;entryX=0.5;entryY=1;entryDx=0;entryDy=0;strokeColor=#A8201A;fontColor=#143642;fillColor=#FAE5C7;" edge="1" parent="1" source="rAa5i9q1NJUEjYylJrQr-3" target="WGp3EcYNC5x79ocShvrn-24">
          <mxGeometry relative="1" as="geometry" />
        </mxCell>
        <mxCell id="WGp3EcYNC5x79ocShvrn-29" style="edgeStyle=orthogonalEdgeStyle;rounded=0;orthogonalLoop=1;jettySize=auto;html=1;entryX=0.5;entryY=1;entryDx=0;entryDy=0;strokeColor=#A8201A;fontColor=#143642;fillColor=#FAE5C7;" edge="1" parent="1" source="rAa5i9q1NJUEjYylJrQr-3" target="WGp3EcYNC5x79ocShvrn-27">
          <mxGeometry relative="1" as="geometry" />
        </mxCell>
        <mxCell id="rAa5i9q1NJUEjYylJrQr-3" value="Покупатель" style="shape=umlActor;verticalLabelPosition=bottom;verticalAlign=top;html=1;labelBackgroundColor=none;fillColor=#FAE5C7;strokeColor=#0F8B8D;fontColor=#143642;" vertex="1" parent="1">
          <mxGeometry x="60" y="220" width="30" height="60" as="geometry" />
        </mxCell>
        <mxCell id="qmOXjqmKXsrBevs1zzz6-12" style="edgeStyle=orthogonalEdgeStyle;rounded=0;orthogonalLoop=1;jettySize=auto;html=1;entryX=0;entryY=0.5;entryDx=0;entryDy=0;strokeColor=#A8201A;fontColor=#143642;fillColor=#FAE5C7;" edge="1" parent="1" source="rAa5i9q1NJUEjYylJrQr-4" target="qmOXjqmKXsrBevs1zzz6-5">
          <mxGeometry relative="1" as="geometry" />
        </mxCell>
        <mxCell id="WGp3EcYNC5x79ocShvrn-22" style="edgeStyle=orthogonalEdgeStyle;rounded=0;orthogonalLoop=1;jettySize=auto;html=1;entryX=0;entryY=0.5;entryDx=0;entryDy=0;strokeColor=#A8201A;fontColor=#143642;fillColor=#FAE5C7;" edge="1" parent="1" source="rAa5i9q1NJUEjYylJrQr-4" target="WGp3EcYNC5x79ocShvrn-21">
          <mxGeometry relative="1" as="geometry" />
        </mxCell>
        <mxCell id="rAa5i9q1NJUEjYylJrQr-4" value="Продавец" style="shape=umlActor;verticalLabelPosition=bottom;verticalAlign=top;html=1;labelBackgroundColor=none;fillColor=#FAE5C7;strokeColor=#0F8B8D;fontColor=#143642;" vertex="1" parent="1">
          <mxGeometry x="60" y="340" width="30" height="60" as="geometry" />
        </mxCell>
        <mxCell id="qmOXjqmKXsrBevs1zzz6-2" value="" style="edgeStyle=orthogonalEdgeStyle;rounded=0;orthogonalLoop=1;jettySize=auto;html=1;strokeColor=#A8201A;fontColor=#143642;fillColor=#FAE5C7;" edge="1" parent="1" source="rAa5i9q1NJUEjYylJrQr-5" target="rAa5i9q1NJUEjYylJrQr-4">
          <mxGeometry relative="1" as="geometry" />
        </mxCell>
        <mxCell id="qmOXjqmKXsrBevs1zzz6-13" style="edgeStyle=orthogonalEdgeStyle;rounded=0;orthogonalLoop=1;jettySize=auto;html=1;entryX=0;entryY=0.5;entryDx=0;entryDy=0;strokeColor=#A8201A;fontColor=#143642;fillColor=#FAE5C7;" edge="1" parent="1" source="rAa5i9q1NJUEjYylJrQr-5" target="qmOXjqmKXsrBevs1zzz6-5">
          <mxGeometry relative="1" as="geometry" />
        </mxCell>
        <mxCell id="WGp3EcYNC5x79ocShvrn-16" style="edgeStyle=orthogonalEdgeStyle;rounded=0;orthogonalLoop=1;jettySize=auto;html=1;entryX=0;entryY=0.5;entryDx=0;entryDy=0;strokeColor=#A8201A;fontColor=#143642;fillColor=#FAE5C7;" edge="1" parent="1" source="rAa5i9q1NJUEjYylJrQr-5" target="WGp3EcYNC5x79ocShvrn-5">
          <mxGeometry relative="1" as="geometry" />
        </mxCell>
        <mxCell id="rAa5i9q1NJUEjYylJrQr-5" value="Издатель\производитель" style="shape=umlActor;verticalLabelPosition=bottom;verticalAlign=top;html=1;labelBackgroundColor=none;fillColor=#FAE5C7;strokeColor=#0F8B8D;fontColor=#143642;" vertex="1" parent="1">
          <mxGeometry x="60" y="480" width="30" height="60" as="geometry" />
        </mxCell>
        <mxCell id="qmOXjqmKXsrBevs1zzz6-5" value="Зайти на сайт" style="ellipse;whiteSpace=wrap;html=1;strokeColor=#0F8B8D;fontColor=#143642;fillColor=#FAE5C7;" vertex="1" parent="1">
          <mxGeometry x="240" y="320" width="120" height="80" as="geometry" />
        </mxCell>
        <mxCell id="WGp3EcYNC5x79ocShvrn-17" style="edgeStyle=orthogonalEdgeStyle;rounded=0;orthogonalLoop=1;jettySize=auto;html=1;strokeColor=#A8201A;fontColor=#143642;fillColor=#FAE5C7;" edge="1" parent="1" source="qmOXjqmKXsrBevs1zzz6-6" target="WGp3EcYNC5x79ocShvrn-4">
          <mxGeometry relative="1" as="geometry" />
        </mxCell>
        <mxCell id="WGp3EcYNC5x79ocShvrn-18" style="edgeStyle=orthogonalEdgeStyle;rounded=0;orthogonalLoop=1;jettySize=auto;html=1;strokeColor=#A8201A;fontColor=#143642;fillColor=#FAE5C7;" edge="1" parent="1" source="qmOXjqmKXsrBevs1zzz6-6">
          <mxGeometry relative="1" as="geometry">
            <mxPoint x="329.9999999999998" y="840" as="targetPoint" />
          </mxGeometry>
        </mxCell>
        <mxCell id="qmOXjqmKXsrBevs1zzz6-6" value="Зайти на панель админа" style="ellipse;whiteSpace=wrap;html=1;strokeColor=#0F8B8D;fontColor=#143642;fillColor=#FAE5C7;" vertex="1" parent="1">
          <mxGeometry x="190" y="680" width="120" height="80" as="geometry" />
        </mxCell>
        <mxCell id="qmOXjqmKXsrBevs1zzz6-14" style="edgeStyle=orthogonalEdgeStyle;rounded=0;orthogonalLoop=1;jettySize=auto;html=1;entryX=0.5;entryY=1;entryDx=0;entryDy=0;strokeColor=#A8201A;fontColor=#143642;fillColor=#FAE5C7;" edge="1" parent="1" source="qmOXjqmKXsrBevs1zzz6-9" target="qmOXjqmKXsrBevs1zzz6-5">
          <mxGeometry relative="1" as="geometry" />
        </mxCell>
        <mxCell id="qmOXjqmKXsrBevs1zzz6-15" style="edgeStyle=orthogonalEdgeStyle;rounded=0;orthogonalLoop=1;jettySize=auto;html=1;entryX=0.5;entryY=0;entryDx=0;entryDy=0;strokeColor=#A8201A;fontColor=#143642;fillColor=#FAE5C7;" edge="1" parent="1" source="qmOXjqmKXsrBevs1zzz6-9" target="qmOXjqmKXsrBevs1zzz6-6">
          <mxGeometry relative="1" as="geometry" />
        </mxCell>
        <mxCell id="qmOXjqmKXsrBevs1zzz6-9" value="Админ Интернет-магазина" style="shape=umlActor;verticalLabelPosition=bottom;verticalAlign=top;html=1;labelBackgroundColor=none;fillColor=#FAE5C7;strokeColor=#0F8B8D;fontColor=#143642;" vertex="1" parent="1">
          <mxGeometry x="60" y="590" width="30" height="60" as="geometry" />
        </mxCell>
        <mxCell id="WGp3EcYNC5x79ocShvrn-1" value="Просмотреть каталог товаров" style="ellipse;whiteSpace=wrap;html=1;strokeColor=#0F8B8D;fontColor=#143642;fillColor=#FAE5C7;" vertex="1" parent="1">
          <mxGeometry x="360" y="90" width="120" height="80" as="geometry" />
        </mxCell>
        <mxCell id="WGp3EcYNC5x79ocShvrn-2" value="Добавить товар в корзину" style="ellipse;whiteSpace=wrap;html=1;strokeColor=#0F8B8D;fontColor=#143642;fillColor=#FAE5C7;" vertex="1" parent="1">
          <mxGeometry x="360" y="190" width="120" height="80" as="geometry" />
        </mxCell>
        <mxCell id="WGp3EcYNC5x79ocShvrn-3" value="Редактировать Товары" style="ellipse;whiteSpace=wrap;html=1;strokeColor=#0F8B8D;fontColor=#143642;fillColor=#FAE5C7;" vertex="1" parent="1">
          <mxGeometry x="270" y="850" width="120" height="80" as="geometry" />
        </mxCell>
        <mxCell id="WGp3EcYNC5x79ocShvrn-4" value="Редактировать пользователей" style="ellipse;whiteSpace=wrap;html=1;strokeColor=#0F8B8D;fontColor=#143642;fillColor=#FAE5C7;" vertex="1" parent="1">
          <mxGeometry x="49" y="850" width="120" height="80" as="geometry" />
        </mxCell>
        <mxCell id="WGp3EcYNC5x79ocShvrn-20" style="edgeStyle=orthogonalEdgeStyle;rounded=0;orthogonalLoop=1;jettySize=auto;html=1;entryX=0.5;entryY=0.5;entryDx=0;entryDy=0;entryPerimeter=0;strokeColor=#A8201A;fontColor=#143642;fillColor=#FAE5C7;" edge="1" parent="1" source="WGp3EcYNC5x79ocShvrn-5" target="rAa5i9q1NJUEjYylJrQr-4">
          <mxGeometry relative="1" as="geometry">
            <Array as="points">
              <mxPoint x="130" y="460" />
              <mxPoint x="130" y="380" />
              <mxPoint x="75" y="380" />
            </Array>
          </mxGeometry>
        </mxCell>
        <mxCell id="WGp3EcYNC5x79ocShvrn-5" value="Предоставить свой товар" style="ellipse;whiteSpace=wrap;html=1;strokeColor=#0F8B8D;fontColor=#143642;fillColor=#FAE5C7;" vertex="1" parent="1">
          <mxGeometry x="400" y="440" width="120" height="80" as="geometry" />
        </mxCell>
        <mxCell id="WGp3EcYNC5x79ocShvrn-10" value="купить товар" style="ellipse;whiteSpace=wrap;html=1;strokeColor=#0F8B8D;fontColor=#143642;fillColor=#FAE5C7;" vertex="1" parent="1">
          <mxGeometry x="450" y="300" width="120" height="80" as="geometry" />
        </mxCell>
        <mxCell id="WGp3EcYNC5x79ocShvrn-14" style="edgeStyle=orthogonalEdgeStyle;rounded=0;orthogonalLoop=1;jettySize=auto;html=1;entryX=1;entryY=0.5;entryDx=0;entryDy=0;strokeColor=#A8201A;fontColor=#143642;fillColor=#FAE5C7;dashed=1;dashPattern=8 8;" edge="1" parent="1" source="WGp3EcYNC5x79ocShvrn-12" target="WGp3EcYNC5x79ocShvrn-1">
          <mxGeometry relative="1" as="geometry" />
        </mxCell>
        <mxCell id="WGp3EcYNC5x79ocShvrn-12" value="Раздел Канцелярии" style="ellipse;whiteSpace=wrap;html=1;strokeColor=#0F8B8D;fontColor=#143642;fillColor=#FAE5C7;" vertex="1" parent="1">
          <mxGeometry x="570" y="50" width="120" height="80" as="geometry" />
        </mxCell>
        <mxCell id="WGp3EcYNC5x79ocShvrn-15" style="edgeStyle=orthogonalEdgeStyle;rounded=0;orthogonalLoop=1;jettySize=auto;html=1;strokeColor=#A8201A;fontColor=#143642;fillColor=#FAE5C7;dashed=1;dashPattern=8 8;" edge="1" parent="1" source="WGp3EcYNC5x79ocShvrn-13" target="WGp3EcYNC5x79ocShvrn-1">
          <mxGeometry relative="1" as="geometry" />
        </mxCell>
        <mxCell id="WGp3EcYNC5x79ocShvrn-13" value="Раздел Книг" style="ellipse;whiteSpace=wrap;html=1;strokeColor=#0F8B8D;fontColor=#143642;fillColor=#FAE5C7;" vertex="1" parent="1">
          <mxGeometry x="690" y="110" width="120" height="80" as="geometry" />
        </mxCell>
        <mxCell id="WGp3EcYNC5x79ocShvrn-23" style="edgeStyle=orthogonalEdgeStyle;rounded=0;orthogonalLoop=1;jettySize=auto;html=1;entryX=0.582;entryY=0.74;entryDx=0;entryDy=0;entryPerimeter=0;strokeColor=#A8201A;fontColor=#143642;fillColor=#FAE5C7;" edge="1" parent="1" source="WGp3EcYNC5x79ocShvrn-21" target="qmOXjqmKXsrBevs1zzz6-9">
          <mxGeometry relative="1" as="geometry" />
        </mxCell>
        <mxCell id="WGp3EcYNC5x79ocShvrn-21" value="Предоставить новый товар на продажу" style="ellipse;whiteSpace=wrap;html=1;strokeColor=#0F8B8D;fontColor=#143642;fillColor=#FAE5C7;" vertex="1" parent="1">
          <mxGeometry x="400" y="545" width="120" height="80" as="geometry" />
        </mxCell>
        <mxCell id="WGp3EcYNC5x79ocShvrn-24" value="Зарегестрироваться" style="ellipse;whiteSpace=wrap;html=1;strokeColor=#0F8B8D;fontColor=#143642;fillColor=#FAE5C7;" vertex="1" parent="1">
          <mxGeometry x="180" y="50" width="110" height="60" as="geometry" />
        </mxCell>
        <mxCell id="WGp3EcYNC5x79ocShvrn-27" value="Оставить Отзыв\рецензию" style="ellipse;whiteSpace=wrap;html=1;strokeColor=#0F8B8D;fontColor=#143642;fillColor=#FAE5C7;" vertex="1" parent="1">
          <mxGeometry x="570" y="190" width="120" height="80" as="geometry" />
        </mxCell>
        <mxCell id="WGp3EcYNC5x79ocShvrn-30" value="Ввести промокод" style="ellipse;whiteSpace=wrap;html=1;strokeColor=#0F8B8D;fontColor=#143642;fillColor=#FAE5C7;" vertex="1" parent="1">
          <mxGeometry x="680" y="300" width="120" height="80" as="geometry" />
        </mxCell>
        <mxCell id="WGp3EcYNC5x79ocShvrn-31" style="edgeStyle=orthogonalEdgeStyle;rounded=0;orthogonalLoop=1;jettySize=auto;html=1;strokeColor=#A8201A;fontColor=#143642;fillColor=#FAE5C7;dashed=1;dashPattern=8 8;" edge="1" parent="1">
          <mxGeometry relative="1" as="geometry">
            <mxPoint x="680" y="339.94" as="sourcePoint" />
            <mxPoint x="570" y="340" as="targetPoint" />
            <Array as="points">
              <mxPoint x="600" y="340" />
              <mxPoint x="600" y="340" />
            </Array>
          </mxGeometry>
        </mxCell>
      </root>
    </mxGraphModel>
  </diagram>
</mxfile>
